# xmcd CD database file
#
# Track frame offsets:
#	150
#	17505
#	28334
#	43315
#	55728
#	78322
#	94971
#	111583
#	126687
#	141163
#
# Disc length: 2137 seconds
#
# Revision: 0
# Processed by: cddbd v1.5.2PL0 Copyright (c) Steve Scherf et al.
# Submitted via: CDex 1.51
#
DISCID=9308570a
DTITLE=Josh White - Chain Gang Songs - Spirituals And Blues
DYEAR=1958
DGENRE=Blues
TTITLE0=Trouble
TTITLE1=twas On A Monday
TTITLE2=Going Home, Boys
TTITLE3=Nine Foot Shovel
TTITLE4=Crying Who? Crying You
TTITLE5=Deep Your Fingers In The Water
TTITLE6=The Old Sheep Of Zion
TTITLE7=Mary Had A Baby
TTITLE8=Did You Ever Love A Woman
TTITLE9=Everytime I Feel The Spirit
EXTD=YEAR: 1958
EXTT0=
EXTT1=
EXTT2=
EXTT3=
EXTT4=
EXTT5=
EXTT6=
EXTT7=
EXTT8=
EXTT9=
PLAYORDER=
